<?xml version="1.0" standalone="no"?>
<!DOCTYPE svg PUBLIC "-//W3C//DTD SVG 20010904//EN"
 "http://www.w3.org/TR/2001/REC-SVG-20010904/DTD/svg10.dtd">
<svg version="1.0" xmlns="http://www.w3.org/2000/svg"
 width="1000.000000pt" height="1000.000000pt" viewBox="0 0 1000.000000 1000.000000"
 preserveAspectRatio="xMidYMid meet">
<metadata>
Created by potrace 1.14, written by Peter Selinger 2001-2017
</metadata>
<g transform="translate(0.000000,1000.000000) scale(0.100000,-0.100000)"
fill="#000000" stroke="none">
<path d="M4115 9543 c-136 -17 -273 -39 -330 -55 -22 -5 -47 -12 -57 -13 -44
-9 -265 -88 -339 -122 -496 -225 -894 -615 -1127 -1105 -86 -180 -167 -444
-188 -612 -3 -23 -7 -47 -9 -54 -9 -26 -19 -201 -18 -317 0 -107 3 -158 17
-285 7 -62 42 -236 56 -285 60 -197 62 -203 131 -359 158 -361 463 -718 808
-947 212 -141 516 -274 720 -315 12 -3 51 -11 85 -19 62 -14 90 -19 226 -35
77 -9 442 -6 495 4 41 8 82 15 133 22 50 7 77 12 77 14 0 1 12 4 27 6 50 8
232 65 323 101 291 114 541 278 771 507 190 190 333 389 439 611 82 174 108
243 149 390 30 113 33 128 56 265 29 183 32 500 5 655 -36 203 -46 246 -97
405 -157 484 -524 947 -961 1211 -45 28 -89 54 -97 59 -34 21 -190 94 -255
120 -146 58 -382 121 -510 136 -22 3 -51 7 -65 10 -29 7 -421 12 -465 7z m445
-269 c58 -8 130 -19 160 -25 82 -17 294 -79 305 -90 5 -5 15 -9 23 -9 22 0
251 -114 332 -166 250 -160 464 -371 623 -615 60 -91 156 -277 178 -344 7 -22
16 -44 20 -50 18 -27 77 -253 95 -364 3 -18 8 -43 10 -55 8 -39 17 -190 18
-281 0 -134 -13 -266 -40 -395 -61 -302 -200 -602 -391 -845 -79 -100 -286
-300 -382 -369 -260 -186 -561 -317 -831 -362 -14 -2 -35 -6 -46 -9 -90 -20
-402 -27 -544 -12 -508 54 -1006 327 -1336 732 -221 270 -383 647 -429 995 -3
25 -9 59 -11 75 -6 31 -6 346 0 380 1 11 7 52 11 90 5 39 10 72 10 75 2 7 15
71 19 90 2 8 6 29 10 45 193 759 802 1337 1565 1486 58 11 135 23 171 26 36 3
66 7 68 8 10 9 304 0 392 -11z"/>
<path d="M2019 4445 c-5 -1 -3 -235 1 -236 3 -1 977 -3 2165 -5 1188 -1 2166
-3 2173 -3 9 -1 12 -391 12 -1916 l0 -1915 120 0 120 0 0 1918 0 1917 828 0
827 0 3 122 3 122 -3126 -2 c-1719 0 -3126 -1 -3126 -2z"/>
</g>
</svg>
