<?xml version="1.0" standalone="no"?>
<!DOCTYPE svg PUBLIC "-//W3C//DTD SVG 20010904//EN"
 "http://www.w3.org/TR/2001/REC-SVG-20010904/DTD/svg10.dtd">
<svg version="1.0" xmlns="http://www.w3.org/2000/svg"
 width="512.000000pt" height="512.000000pt" viewBox="0 0 512.000000 512.000000"
 preserveAspectRatio="xMidYMid meet">

<g transform="translate(0.000000,512.000000) scale(0.100000,-0.100000)"
fill="#000000" stroke="none">
<path d="M385 5106 c-45 -20 -83 -70 -90 -119 -3 -23 -5 -1132 -3 -2464 l3
-2422 21 -27 c11 -15 33 -37 48 -48 l27 -21 2155 -3 c2381 -2 2196 -8 2250 64
l29 37 3 1796 c2 988 0 1816 -3 1841 -6 44 -22 61 -658 699 -376 377 -666 659
-684 667 -47 20 -3052 20 -3098 0z m2895 -854 c0 -639 -3 -614 76 -659 l39
-23 568 0 567 0 0 -1635 0 -1635 -1970 0 -1970 0 0 2260 0 2260 1345 0 1345 0
0 -568z m670 -17 l365 -365 -368 0 -367 0 0 365 c0 201 1 365 3 365 1 0 166
-164 367 -365z"/>
<path d="M1885 3220 c-132 -26 -240 -86 -346 -190 -83 -83 -145 -190 -174
-305 -20 -79 -21 -232 -1 -319 42 -178 182 -355 346 -434 114 -56 183 -72 307
-72 134 0 230 29 332 100 145 102 180 210 95 295 -66 66 -142 60 -233 -19 -75
-65 -122 -80 -228 -74 -130 8 -230 73 -294 190 -33 60 -34 68 -34 168 0 95 3
111 28 162 35 72 104 140 176 176 49 24 68 27 152 27 91 0 99 -2 175 -40 55
-28 91 -39 120 -39 136 2 194 168 92 260 -37 34 -144 84 -226 105 -78 20 -211
24 -287 9z"/>
<path d="M2812 3210 c-42 -26 -72 -76 -72 -122 0 -45 352 -1067 385 -1119 58
-89 207 -93 275 -6 32 40 370 1060 370 1115 0 50 -19 92 -56 121 -57 45 -151
36 -197 -19 -17 -20 -62 -141 -138 -369 -63 -187 -116 -337 -120 -333 -3 4
-57 154 -119 334 -62 180 -120 340 -130 356 -36 59 -135 80 -198 42z"/>
<path d="M1276 1477 c-53 -30 -78 -79 -73 -140 5 -57 30 -95 78 -119 32 -17
113 -18 1264 -18 1151 0 1232 1 1264 18 48 24 73 62 78 119 5 61 -20 110 -73
140 l-39 23 -1230 0 -1230 0 -39 -23z"/>
<path d="M1280 878 c-57 -30 -83 -76 -77 -141 5 -57 30 -95 78 -119 32 -17
113 -18 1264 -18 1151 0 1232 1 1264 18 48 24 73 62 78 119 6 65 -20 111 -77
141 l-44 22 -1221 0 -1221 0 -44 -22z"/>
</g>
</svg>
